<?xml version="1.0" standalone="no"?> <!DOCTYPE svg PUBLIC "-//W3C//DTD SVG 1.0//EN" "http://www.w3.org/TR/2001/REC-SVG-20010904/DTD/svg10.dtd" > <svg xmlns="http://www.w3.org/2000/svg" width="100%" height="100%">
<defs >
<font id="sherwood" horiz-adv-x="87" ><font-face
    font-family="Sherwood"
    units-per-em="1000"
    panose-1="0 0 0 0 0 0 0 0 0 0"
    ascent="868"
    descent="-229"
    alphabetic="0" />
<missing-glyph horiz-adv-x="800" d="M50 0V800H750V0H50ZM700 50V750H100V50H700Z" />
<glyph unicode=" " glyph-name="space" horiz-adv-x="360" />
<glyph unicode="!" glyph-name="exclam" horiz-adv-x="261" d="M214 657Q214 540 202 421T177 186Q151 176 125 173T61 169Q61 172 58 177Q58 251 65 408T73 643Q108 650 143 655T209 661Q212 661 214 657ZM235 2H230Q166 -5 102 -12H88Q82 -11 79 -11Q55 31 43
67Q43 71 52 71Q84 74 109 77T183 89Q195 83 204 69T217 41Q223 30 227 21T235 2Z" />
<glyph unicode="&quot;" glyph-name="quotedbl" horiz-adv-x="403" d="M373 605Q357 574 349 541T336 465Q320 459 298 455T247 444L243 449Q249 496 249 556Q249 569 249 584T245 621Q259 625 282 627T324 629Q345 629 355 627T373 605ZM213 605Q197 574 189
541T176 465Q160 459 138 455T87 444L83 449Q89 496 89 556Q89 569 89 584T85 621Q99 625 122 627T164 629Q185 629 195 627T213 605Z" />
<glyph unicode="#" glyph-name="numbersign" horiz-adv-x="588" d="M576 432Q575 424 573 424Q558 411 550 385T528 346L518 344L452 347L425 269L532 272Q531 269 530 266Q515 254 505 226T477 185Q463 185 435 187T398 190L333 4Q311 1 285 -1T239 -4L311 192L193
190L129 4Q107 1 81 -1T35 -4L106 189Q61 189 42 189T6 186Q7 194 9 194Q31 233 54 272L64 274Q76 274 100 272T136 270L163 349L50 346Q51 349 52 352Q67 364 77 392T105 433Q117 433 146 430T192 427Q222 510 241 565T261 626Q261 629 286 630T322 631Q333 631
344 631Q352 628 360 625Q319 534 277 426L396 428Q426 509 445 564T465 626Q465 629 490 630T526 631Q537 631 548 631Q556 628 564 625Q524 536 483 429Q525 429 543 429T576 432ZM368 349L250 351L221 268L338 267L368 349Z" />
<glyph unicode="$" glyph-name="dollar" horiz-adv-x="641" d="M624 631L535 492L489 530L421 429Q522 386 548 365T574 252Q574 153 508 126T371 90T273 74T209 67L187 45H63L76 76L30 97L18 239L142 180L231 316Q168 316 121 356T74 458Q74 471 78 505T153 578T301
617Q322 617 356 621T410 625L429 659L589 681L556 631H624ZM375 555Q351 567 327 567Q286 567 263 541T228 496T215 461Q215 438 238 427T275 415Q284 415 291 419T304 427Q332 467 357 508T375 555ZM409 291Q402 304 396 317Q387 331 377 331Q369 331 360 322T337
291L253 151Q267 142 278 139T304 135Q348 135 382 176T416 261Q416 278 409 291Z" />
<glyph unicode="%" glyph-name="percent" horiz-adv-x="954" d="M425 381Q406 331 359 303T254 267Q212 257 176 257Q131 257 94 272T32 322Q6 361 6 420Q6 471 25 508Q52 568 108 592T242 616Q260 618 268 618Q313 618 353 600T416 546T440 455Q440 435 436 417T425
381ZM720 640Q681 574 595 433T455 198T355 8Q355 6 351 6T347 4Q340 4 332 4T320 5Q296 5 269 2T215 -4Q215 2 217 5T247 46T318 154T428 342T529 516Q542 542 553 568T571 612T580 632Q642 637 704 643L720 640ZM925 136Q894 76 840 59T672 27Q589 27 556 71T516
141T508 195Q508 240 526 276Q552 337 613 362T754 388Q804 388 845 375T907 334T936 281T943 224Q943 175 925 136ZM331 508Q313 537 293 550T246 570Q238 571 233 571Q177 571 142 527Q102 487 102 429Q102 412 108 386T144 337T193 311T222 309Q250 309 275
325T319 369Q345 412 345 456Q345 486 331 508ZM840 272Q827 300 807 315T758 342Q721 342 693 332T641 295Q605 259 605 200Q605 182 610 155T645 105T704 82Q716 79 727 79Q753 79 774 92T820 132Q849 174 849 225Q849 251 840 272Z" />
<glyph unicode="&amp;" glyph-name="ampersand" horiz-adv-x="656" d="M634 3Q608 3 548 1T483 -1H462Q441 -1 430 1T408 16Q399 16 383 10T361 3Q346 0 322 -2T280 -4Q252 -4 223 -1Q190 -6 160 -6Q119 -6 88 6T38 49Q12 89 12 139Q12 181 31 213Q39 237 54 257T97
304Q95 316 81 335T64 364Q42 406 42 462Q42 493 50 521T89 586T179 624Q196 624 211 620Q220 616 227 615T245 614Q267 615 279 615Q292 615 327 606T391 544Q405 511 405 468Q405 441 400 419T382 376Q367 349 343 325T286 276Q284 263 295 252T319 229Q328 224
347 208T382 192Q430 268 430 357V372Q430 378 430 384Q428 393 428 397Q433 397 433 402Q451 400 459 400Q475 400 490 401T521 403Q535 403 542 402Q546 394 546 380Q545 362 545 353Q545 343 546 338Q546 283 530 232T483 129V121Q560 65 634 3ZM278 499Q275
532 262 544T223 562Q211 557 203 553T185 540Q166 515 166 480Q166 458 172 434T186 396T199 376T211 372Q278 417 278 499ZM290 95Q270 115 241 138T185 184Q181 187 186 183T191 177Q190 177 189 177T176 188Q156 166 156 141Q153 118 162 100T193 61Q208 52
226 52Q242 52 256 58Q269 68 279 77T290 95Z" />
<glyph unicode="&apos;" glyph-name="quotesingle" horiz-adv-x="275" d="M213 605Q197 574 189 541T176 465Q160 459 138 455T87 444L83 449Q89 496 89 556Q89 569 89 584T85 621Q99 625 122 627T164 629Q185 629 195 627T213 605Z" />
<glyph unicode="(" glyph-name="parenleft" horiz-adv-x="348" d="M333 -116Q312 -133 293 -144T232 -175Q157 -155 97 -87T26 39T12 128T8 194Q8 264 25 316T76 430T164 538T276 617Q299 628 323 639Q234 545 177 431T119 194Q119 95 148 27T235 -69T333 -116Z" />
<glyph unicode=")" glyph-name="parenright" horiz-adv-x="354" d="M320 401Q335 321 335 264Q335 194 319 144T268 31T178 -80T67 -158Q43 -168 20 -179Q108 -87 166 27T225 265Q225 364 196 432T108 528T10 576Q29 592 51 604T111 634Q187 615 246 547T320 401Z" />
<glyph unicode="*" glyph-name="asterisk" horiz-adv-x="385" d="M346 511Q321 507 305 505T287 499Q288 494 301 483T315 463Q292 452 269 441Q262 443 246 451T227 458V416Q227 399 226 392Q199 404 183 414T166 452Q157 447 149 443Q128 428 119 424Q116 440
112 454T104 483Q107 494 110 505Q105 510 93 510Q87 510 79 510T66 523Q57 537 52 546T47 563Q55 566 82 568T110 572Q103 583 93 592T80 609Q98 620 111 627T136 630Q140 629 148 623T163 618Q167 627 168 645T171 671Q183 666 199 653T219 634Q223 624 227 615Q236
617 251 628T269 641Q278 639 284 626T295 607Q297 600 289 590T280 577Q280 573 286 571T310 567T332 550T346 511Z" />
<glyph unicode="+" glyph-name="plus" horiz-adv-x="500" d="M484 354Q474 337 472 304T461 255Q457 255 455 254T452 251Q422 254 378 257T303 260Q303 230 306 168T309 75H302Q290 83 273 83Q263 83 245 81T223 78Q205 78 193 87Q204 158 204 260Q163 260 100
258T27 255V262Q36 275 40 312T57 365Q124 355 204 355Q204 429 204 462T201 526H210Q217 522 228 520T250 517H272Q285 517 292 516T309 509Q309 505 310 503T313 500Q310 471 307 428T304 356Q371 356 411 358T484 363V354Z" />
<glyph unicode="," glyph-name="comma" horiz-adv-x="295" d="M270 143Q273 128 224 55T129 -57Q120 -58 109 -58T92 -58Q80 -58 65 -58T31 -57Q56 -15 80 45T121 147Q141 149 165 150T217 151Q245 151 256 150T270 143Z" />
<glyph unicode="-" glyph-name="hyphen" horiz-adv-x="348" d="M326 351Q320 335 306 313T273 263Q254 262 226 262T170 261H144H121H101H85H72Q53 261 41 261T21 262L76 353Q111 353 186 355T270 358Q312 358 318 357Q322 354 326 351Z" />
<glyph unicode="." glyph-name="period" horiz-adv-x="260" d="M222 64Q218 59 198 31T161 -10Q115 6 89 14T30 38Q30 46 39 54T50 67Q75 95 83 104T105 124Q139 109 163 97T198 80T216 72T222 64Z" />
<glyph unicode="/" glyph-name="slash" horiz-adv-x="520" d="M487 643Q392 486 304 326T176 84T96 -1T31 -4Q70 89 122 193T257 458T343 626Q346 630 406 638T478 646Q481 646 484 646T487 643Z" />
<glyph unicode="0" glyph-name="zero" horiz-adv-x="860" d="M788 493Q824 425 824 340Q824 283 808 230T748 118T621 24T435 -11Q400 -18 378 -20T324 -23Q260 -23 207 -5T116 58T56 159T34 279Q34 338 57 405T157 535T320 610Q357 613 394 617T456 630T498 640T535
642Q614 642 683 601T788 493ZM633 449Q599 505 562 527T487 559T426 568Q389 568 354 551T280 501Q190 411 190 287Q190 233 213 177T297 82T428 44Q550 63 596 128T654 234T666 319Q666 393 633 449Z" />
<glyph unicode="1" glyph-name="one" horiz-adv-x="535" d="M512 66Q506 57 503 28T490 -13Q396 -13 224 -9T32 -4Q29 2 29 7Q29 12 32 21T36 35Q38 41 40 63T54 97Q95 91 124 88T179 84Q196 84 196 97Q196 183 200 340T205 515Q199 530 191 533Q171 533 114 524T32
515Q27 517 29 525T32 537Q36 551 43 584T54 628Q58 628 62 633Q135 626 225 626Q314 626 387 633V628Q366 515 359 382T352 87Q355 82 359 81T369 79Q377 78 385 78T403 78Q425 78 445 79T487 81Q496 81 512 79Q512 72 512 66Z" />
<glyph unicode="2" glyph-name="two" horiz-adv-x="768" d="M745 100Q738 91 711 54T672 -3Q660 -7 645 -7Q625 -6 614 -6Q600 -6 593 -7Q518 -7 412 -5T199 -1T17 1V5Q149 74 197 101T307 176T425 291Q425 294 424 296T421 299Q391 287 362 281T302 274Q273 274
251 280T202 309T161 367T146 447Q146 470 151 503T205 580T312 637Q335 637 381 641T451 645Q473 645 494 642Q503 642 512 642T531 643Q565 643 588 626T641 553T671 449Q671 394 646 343T587 250T526 183T425 100Q425 96 430 93T439 88Q496 88 609 94T740 100H745ZM494
416Q499 434 499 450Q499 468 495 487T478 531T449 567T417 580T394 583Q369 583 348 570T312 533Q297 504 297 464Q297 434 307 414T337 382T376 369Q390 367 397 367Q427 367 451 379T494 416Z" />
<glyph unicode="3" glyph-name="three" horiz-adv-x="661" d="M646 620Q640 615 605 588T502 500T364 373Q364 362 376 362Q386 363 391 363Q397 363 402 360Q462 353 509 321T570 236Q573 218 573 202Q573 169 560 140T508 73T396 11T239 -12Q186 -12 133 -5T25
18Q21 22 21 31Q21 53 21 74T25 121Q27 124 30 124Q138 82 177 70T278 57Q312 63 344 86T381 128T387 155T388 168Q388 194 375 216T338 257Q310 273 280 279T214 286Q180 286 131 279T38 265Q36 267 36 269T38 274L294 531Q294 539 287 539Q248 539 158 537T59
535L56 539Q75 593 94 638Q97 642 102 642Q231 642 438 633T646 620Z" />
<glyph unicode="4" glyph-name="four" horiz-adv-x="737" d="M706 232L659 130L655 125H551Q541 111 541 89Q541 83 542 71T543 53V39Q543 29 543 19Q540 6 539 1Q529 0 521 0T507 -1Q497 -1 475 0T440 1Q422 0 412 0Q395 0 384 5Q384 21 389 60T394 116Q394 120
384 130H11V147Q77 222 124 279T273 466T402 630Q406 632 406 635Q424 633 437 633Q459 633 503 637T563 641Q595 641 595 630Q595 614 587 587T573 518T557 394T547 240Q551 237 556 237Q569 236 578 236T594 235Q621 235 661 237T706 240Q709 238 706 232ZM415
485Q415 500 415 510T413 525Q412 525 410 511T391 478T345 422T267 315T218 241Q218 236 222 232Q248 232 318 230T394 228Q398 232 402 237L415 485Z" />
<glyph unicode="5" glyph-name="five" horiz-adv-x="665" d="M655 367Q655 363 646 363H502Q486 380 455 425T408 488Q403 488 399 488Q352 430 305 372Q309 363 322 361T368 355T440 322T492 246Q504 219 504 189Q504 128 461 79Q418 35 357 17T223 -2Q181 -2
149 1T83 8T37 15T21 30Q29 73 29 114Q29 115 34 121Q72 100 113 87T196 74Q240 74 271 91T320 133T335 186Q335 209 321 228T281 264Q258 277 233 281T173 286Q147 286 103 284T51 281Q51 285 79 316T154 405T242 517T327 629Q345 629 364 629T403 630Q439 630
463 628T508 598T567 507T655 367Z" />
<glyph unicode="6" glyph-name="six" horiz-adv-x="789" d="M779 513Q673 513 614 512T488 503T355 478Q306 468 265 427T207 338T191 246Q191 198 206 158T252 93T309 56T364 44Q372 45 376 45Q422 58 455 98T493 172T498 222Q498 321 412 368Q391 377 366 381T279
385Q277 390 283 396T296 408Q339 434 391 445T504 456Q567 429 608 369T650 244Q650 174 614 116T522 30T402 -5T244 -12Q188 -6 143 21T72 98Q37 156 37 237Q37 285 49 329T105 433T239 543T396 611T495 638T540 650Q543 650 546 649T559 642T671 576T779 513Z"
/>
<glyph unicode="7" glyph-name="seven" horiz-adv-x="772" d="M758 629Q753 625 753 620Q615 480 492 325T245 -8Q234 -15 216 -15Q207 -15 191 -14T174 -12H24Q24 -8 24 -4Q175 157 220 207T325 337T430 510Q433 514 432 518T427 527Q367 527 231 525T86 523V532Q114
580 142 629Q142 632 148 634Q192 630 265 628T413 626Q489 626 571 627T741 630Q751 630 753 630T758 629Z" />
<glyph unicode="8" glyph-name="eight" horiz-adv-x="648" d="M603 562Q621 527 621 487Q621 451 610 419T581 363T536 322T501 298T493 287Q526 259 545 227T565 157Q565 143 559 114T519 48T454 -1T397 -16T347 -19Q314 -19 253 -15T186 -10Q132 -4 88 25T36
83T28 120T28 133Q28 193 71 229Q90 239 102 246T124 264Q119 273 102 289T65 333T45 431Q45 484 68 532T145 613T261 654H421Q480 654 529 632T603 562ZM452 420Q458 439 459 450T461 479Q461 496 457 511T427 559T351 592Q312 585 280 567T231 517Q211 486 211
450Q211 421 226 391T275 346T350 330Q382 334 408 360T452 420ZM389 171Q384 190 364 200T319 215Q296 216 274 218Q249 218 229 212T194 188Q181 165 181 135Q181 119 188 101T218 66T266 42Q298 46 324 57T373 91Q393 118 393 148Q393 162 389 171Z" />
<glyph unicode="9" glyph-name="nine" horiz-adv-x="750" d="M701 280Q654 174 551 104T315 -11Q305 -12 279 -21T239 -30Q161 7 114 29T7 75Q7 80 16 80Q112 92 212 104T385 138T506 218T558 315T562 360T563 373Q563 429 542 476T475 556Q450 570 431 577T387
584Q376 584 351 579T293 535T253 461T247 406Q247 330 297 284Q317 263 348 253T412 242Q434 242 447 244T484 252Q484 243 477 236T456 220Q389 167 299 167Q258 167 215 183T141 243T93 347Q88 374 88 396Q88 446 109 490T194 589T375 643Q422 653 463 653Q526
653 577 634T658 577T703 489T718 387Q718 333 701 280Z" />
<glyph unicode=":" glyph-name="colon" horiz-adv-x="328" d="M302 355Q303 354 301 348Q263 313 225 279Q223 278 213 279Q190 290 142 306T71 331Q73 336 73 340Q90 353 121 383T163 422Q201 406 235 389T302 355ZM238 69Q219 43 205 25T175 -5Q103 22 24 58Q24
66 33 73T45 87Q71 118 100 145Q118 136 168 110T222 82T232 78T238 69Z" />
<glyph unicode=";" glyph-name="semicolon" horiz-adv-x="333" d="M314 303Q315 302 310 297L229 244Q222 244 220 244T217 247Q192 261 141 285T80 314V318Q103 332 136 348T175 366L189 364Q208 353 257 330T314 303ZM275 167Q236 91 211 56T153 -18T116 -58Q98
-58 64 -60T20 -63L17 -58Q92 57 168 172Q187 175 217 176T275 177Q279 172 275 167Z" />
<glyph unicode="&lt;" glyph-name="less" horiz-adv-x="755" d="M703 131Q673 110 666 102T648 77T628 40T608 10Q515 65 428 113T254 205T29 320Q31 328 30 331T138 389T374 508T587 621Q593 622 595 620Q600 597 626 558T674 502L678 493Q585 458 498 416T334
326Q331 324 331 322T427 265T699 137Q701 134 703 131Z" />
<glyph unicode="=" glyph-name="equal" horiz-adv-x="500" d="M484 456Q474 439 472 406T461 357Q456 357 452 353Q407 358 370 359T271 360Q211 360 120 359T27 357Q25 358 27 364Q36 377 40 414T57 467Q90 462 136 460T234 458Q302 458 373 460T484 465Q484
460 484 456ZM481 254Q472 241 468 204T451 151Q418 156 372 158T274 160Q205 160 144 158T24 153Q24 157 24 162Q34 179 36 212T47 261Q52 261 56 265Q101 261 138 260T237 258Q297 258 388 259T481 261Q483 260 481 254Z" />
<glyph unicode="&gt;" glyph-name="greater" horiz-adv-x="755" d="M717 320Q614 268 519 219T333 121T138 10Q129 19 119 39T99 75T80 100T43 131Q42 134 43 135T92 155T229 220T367 293T415 323Q413 325 412 326Q259 420 68 493L72 502Q93 518 119 557T151 620Q153
622 159 621Q234 579 365 512T607 390T716 333Q718 325 717 320Z" />
<glyph unicode="?" glyph-name="question" horiz-adv-x="400" d="M362 229Q293 184 249 167T167 150Q118 150 79 178Q70 187 63 196T53 217Q53 264 77 303T117 362T160 417T188 482Q188 496 182 511Q167 525 145 525Q130 525 109 518T69 504Q62 514 59 536T53
564L57 571Q106 608 157 629T266 651Q298 638 307 634T335 606T354 545Q354 529 346 510T316 467T272 420L263 416Q248 392 232 365T216 316Q216 296 227 278Q244 260 272 260L289 262Q306 264 324 273T360 292Q364 279 364 258Q364 250 363 242T362 229ZM335 80Q286
32 224 -9Q175 1 133 12T34 39V43L169 123Q211 114 259 102T332 82L335 80Z" />
<glyph unicode="@" glyph-name="at" horiz-adv-x="744" d="M722 415Q722 325 677 256T572 165T489 142Q464 142 450 156T436 195V202Q393 147 326 147Q257 147 215 194T173 319Q173 415 228 478T366 541Q452 541 489 465L501 527H560L508 248L503 212Q503 193
524 193Q539 193 561 206T612 245T660 315T679 405Q679 522 596 597T385 672Q251 672 160 581T68 353Q68 217 160 126T389 34Q464 34 515 61T618 140H678Q642 95 623 77T574 40Q538 15 489 2T385 -11Q223 -11 117 91T10 352Q10 509 116 614T382 719Q529 719 625
633T722 415ZM465 373Q465 421 441 447T372 474Q318 474 281 431T244 324Q244 272 272 240T346 208Q400 208 432 253T465 373Z" />
<glyph unicode="A" glyph-name="A" horiz-adv-x="645" d="M642 -4L638 -7Q590 -7 545 -6T455 -4Q447 12 439 52T424 110Q409 163 406 171T390 192Q371 195 339 196T303 197Q278 197 253 197T204 196Q194 196 189 187T171 134T134 6Q134 3 130 1H9Q7 4 7 5T5 6Q70
149 122 281T225 561Q228 578 215 599T199 628Q199 630 201 630T204 633Q254 633 304 631T389 628Q395 628 396 627T421 532T502 286T642 -4ZM364 287Q357 314 351 331T326 401T304 455Q303 452 299 452Q285 427 275 403T230 287Q230 274 234 274Q269 267 306 267Q330
267 356 270Q362 273 364 278T364 287Z" />
<glyph unicode="B" glyph-name="B" horiz-adv-x="605" d="M558 221Q565 196 565 165Q565 88 518 42Q490 10 448 -3T355 -17Q333 -17 307 -16T251 -10Q213 -10 131 -8T38 -6Q41 11 47 35T57 90T63 178T66 311Q66 353 65 437T64 562Q55 595 46 628Q46 630 50 632Q79
632 108 632T167 631Q223 631 271 633T361 641Q419 641 472 624T545 576Q566 539 566 491Q566 446 545 413Q536 391 515 371T465 335Q459 328 465 321Q497 307 524 280T558 221ZM401 526Q388 549 353 562T277 576Q256 570 247 565T234 544Q224 515 218 473T212
353Q212 350 216 347T221 343Q239 341 248 341Q293 341 331 360T391 411T412 481Q412 507 401 526ZM405 124Q411 144 411 163Q411 199 395 222T332 264T243 283Q236 284 232 284Q220 284 212 274V221Q212 173 214 136T225 64Q230 55 239 51T277 47Q320 47 356 67T405
124Z" />
<glyph unicode="C" glyph-name="C" horiz-adv-x="774" d="M766 547Q766 538 754 535Q693 509 632 484Q626 484 620 484Q578 530 525 555T412 581Q343 570 287 522T211 416T190 304Q190 248 209 198T268 111Q300 83 337 67T415 50Q438 50 521 71T732 167Q720 109
708 67Q695 27 689 7Q682 5 682 3Q639 -3 594 -5T497 -7H483H471Q452 -7 433 -7T396 -6H385Q372 -8 358 -8T335 -8Q253 -8 190 20T83 118T39 292Q39 348 55 402T101 498Q212 634 394 634Q439 640 471 643T530 647Q550 647 584 643T692 597T766 547Z" />
<glyph unicode="D" glyph-name="D" horiz-adv-x="750" d="M672 512Q711 435 711 342Q711 271 687 205T616 89Q574 41 518 20T405 -6T252 -11Q212 -11 133 -8T28 -4Q32 11 46 41T63 102T69 190T72 330V349V366V381V394V405Q72 422 72 439T71 474V484Q71 557 43
617Q42 627 46 627Q102 627 157 626T269 624H287Q356 624 419 631H459Q536 631 584 610T672 512ZM544 430Q518 499 477 527T397 563T348 571Q327 571 295 557T247 537T225 497T216 433Q216 380 212 285T207 181Q207 158 208 134T212 87Q217 77 224 70T253 54T307
45Q355 45 400 70T487 139Q521 180 541 231T561 337Q561 360 557 384T544 430Z" />
<glyph unicode="E" glyph-name="E" horiz-adv-x="514" d="M482 620Q476 605 467 571T456 531Q451 529 446 527Q407 527 321 529T226 531Q217 524 215 519Q213 506 212 488T211 451Q211 436 212 406T213 362Q214 359 221 356Q245 352 265 351T315 350Q357 350 390
353T469 362Q469 340 466 307T460 256Q454 254 449 252Q421 252 357 257T269 262Q245 262 219 259Q210 252 210 251Q209 243 209 234T209 219Q209 202 211 167T213 114Q213 94 227 94Q272 88 322 88Q359 88 394 92T458 106Q466 106 466 95V84Q468 71 468 60T468
37V20Q468 11 468 4T466 -10Q430 -10 354 -7T238 -4L58 -6Q56 -3 55 -2Q66 69 69 144T73 316V337V356V372V386V399Q73 418 73 437T72 476V487Q72 525 65 565T53 634L57 638Q98 638 192 633T321 628Q370 628 399 630T451 637T482 644Q486 644 486 639T482 620Z"
/>
<glyph unicode="F" glyph-name="F" horiz-adv-x="508" d="M483 641Q474 587 465 533Q460 530 459 528Q400 528 314 529T225 531L216 523Q216 506 213 459T209 388Q209 366 212 345L220 339H283Q349 339 386 341T465 356Q466 355 471 354Q471 324 467 292T459 242Q453
240 447 239Q408 239 346 241T275 244Q261 244 248 244T218 242Q215 238 212 234Q212 175 212 117T213 -1L209 -5Q183 -5 130 -4T51 -3Q51 2 47 4Q57 80 62 164T68 349T69 544Q63 590 51 639L59 641Q100 641 186 638T315 635Q358 635 395 637T467 645Q470 645 475
651T482 658Q484 658 484 655T483 641Z" />
<glyph unicode="G" glyph-name="G" horiz-adv-x="831" d="M807 502Q802 498 802 496Q746 490 707 487T637 483Q624 508 602 530T555 556Q530 563 501 568T447 574Q407 574 377 559Q319 541 268 491T205 391T193 301Q193 237 219 182T298 89Q330 73 362 57Q399
41 432 41Q442 41 452 41Q462 44 491 50T561 82T611 155Q617 172 619 192T622 237Q622 248 621 271T620 304Q635 306 661 306T704 307H768Q769 306 771 306T775 304Q775 272 765 209T754 120Q754 94 758 74T770 41T785 13T795 -9Q790 -9 789 -10T787 -12Q726 -2
659 -2Q620 -2 532 -7T415 -12Q376 -18 334 -18Q260 -18 191 8T81 116T40 292Q40 391 88 473T226 589Q271 610 322 617T436 625Q501 638 569 638Q636 638 684 625T752 588T788 543T807 502Z" />
<glyph unicode="H" glyph-name="H" horiz-adv-x="730" d="M690 628Q674 579 668 526T661 408Q661 358 660 308T658 208Q658 160 660 120T666 53T676 14T683 -6L678 -8Q650 -8 592 -7T506 -6Q497 -1 501 15Q511 78 516 138T522 257Q522 272 509 272Q459 272 359
273T208 274Q206 270 204 268T200 265Q200 236 202 167T204 93Q204 90 199 85T196 76Q202 72 206 72Q206 60 210 35T214 -3Q174 -4 125 -4T51 -4L48 0Q58 73 62 154T67 323Q67 360 66 435T65 549Q60 589 56 629Q71 630 96 630T135 630Q168 630 191 630T232 629Q206
539 206 440Q204 426 204 418T203 400Q203 388 205 381T217 373Q252 373 331 371T416 369H428Q455 369 482 369Q505 372 515 373Q522 379 522 381V412Q522 498 519 540T499 629H685L690 628Z" />
<glyph unicode="I" glyph-name="I" horiz-adv-x="275" d="M223 1L218 -4H51Q47 -4 47 1Q69 165 69 353Q69 399 62 489T55 619Q55 624 57 625T60 628H218L223 624Q214 553 210 479T206 324Q206 163 223 1Z" />
<glyph unicode="J" glyph-name="J" horiz-adv-x="405" d="M353 628Q353 627 348 592T342 544Q342 460 336 299T330 110Q315 30 242 -24T81 -94Q58 -96 41 -97T14 -99Q-11 -99 -27 -94Q-23 -67 -19 -53T-1 -5Q8 -5 27 -17T56 -29Q63 -29 70 -25Q147 40 169 138T191
379V454Q191 485 183 548T174 632Q195 635 226 635Q267 635 297 633T353 628Z" />
<glyph unicode="K" glyph-name="K" horiz-adv-x="648" d="M645 623Q495 493 339 345Q333 338 344 320Q389 267 437 214T530 112T642 -6Q623 -6 584 -7T524 -8Q485 -8 454 -4Q408 49 367 96T292 179T213 258Q210 257 208 256T205 252Q205 213 212 122T220 -4Q218
-5 217 -6T216 -8Q190 -8 139 -10T65 -12L60 -3Q60 73 63 207T67 379Q67 461 65 510T54 627L57 628H216L220 625Q203 507 203 373Q206 364 216 371Q286 430 372 511T494 627H645Q645 625 645 623Z" />
<glyph unicode="L" glyph-name="L" horiz-adv-x="498" d="M479 95L440 4Q433 -3 432 -3Q348 -3 214 -1T62 2L59 6Q64 51 66 102T68 205Q68 288 65 413T62 539Q60 555 57 574T46 625L50 626Q72 626 97 626T150 627Q191 627 206 626Q218 622 230 619Q218 564 213
496T207 362Q207 319 209 220T211 114Q214 100 219 91T234 78Q296 78 349 85T479 106Q483 99 479 95Z" />
<glyph unicode="M" glyph-name="M" horiz-adv-x="930" d="M900 -6H726L696 -5Q716 35 725 84T734 190Q734 225 730 296T726 400Q725 403 725 406T721 410Q712 403 708 400Q676 338 633 249T552 80Q549 71 549 62Q549 48 558 27T568 -2L564 -5Q523 -5 484 -4T405
-2Q389 23 367 70T313 184T254 303T195 409Q192 410 189 408T184 403Q184 343 183 226T182 48Q182 41 186 26T190 2H41Q54 54 59 113T65 240Q65 275 67 358T69 448V464Q69 518 63 571Q60 584 49 606T36 633Q37 637 37 639Q73 636 128 636Q195 636 216 636T239 635Q243
628 272 567T327 453T389 330T471 178Q475 175 477 174T482 175Q515 237 549 307T625 464T703 627Q706 631 708 633Q756 633 803 632T898 630Q895 614 886 589T874 531T868 439T866 310Q866 261 866 213T867 115Q867 84 875 56T900 -6Z" />
<glyph unicode="N" glyph-name="N" horiz-adv-x="775" d="M759 -4L551 -3L193 427V95Q193 86 193 77T201 46L211 -4H30Q44 16 51 31T63 66T70 101T71 143V467V480Q71 511 70 523T61 557T49 586T14 631H173Q176 632 179 632T184 632Q199 632 210 626T227 610T239
593L582 172V486Q582 512 580 529T576 562T571 594T563 631H757Q733 610 723 585T709 540T706 500V143Q706 121 706 102T715 58Q729 22 759 -4Z" />
<glyph unicode="O" glyph-name="O" horiz-adv-x="865" d="M789 499Q807 466 816 426T825 345Q825 289 809 236T750 124T623 30T436 -6Q379 -19 325 -19Q262 -19 209 0T117 62T58 163T36 283Q36 343 59 410T159 540T322 615Q382 621 409 625T459 636T500 645T537
647Q617 647 685 607T789 499ZM634 454Q601 510 564 532T489 564T428 574Q390 574 357 557T282 507Q239 464 215 408T191 292Q191 241 214 184T298 88T430 49Q552 66 610 149T668 324Q668 399 634 454Z" />
<glyph unicode="P" glyph-name="P" horiz-adv-x="625" d="M558 572Q580 528 580 474Q580 398 538 345T437 266T309 241Q288 241 264 244T217 252Q204 252 204 243Q204 196 206 156T222 2L217 0Q179 0 119 -1T57 -3Q54 1 55 2Q64 58 67 115T71 243Q71 295 70 347T68
453Q68 549 35 630L39 634H85Q221 634 278 637T404 651Q475 651 506 631T558 572ZM412 547Q399 573 380 585T339 598Q326 598 315 595T269 576T219 509T203 379Q203 364 203 349T204 319Q204 307 213 305T228 303T240 303Q321 303 374 359T427 482Q427 515 412
547Z" />
<glyph unicode="Q" glyph-name="Q" horiz-adv-x="880" d="M961 -99Q962 -104 962 -113Q962 -121 959 -134T953 -163L951 -168Q898 -168 791 -167T632 -166Q573 -166 527 -125T448 -22Q413 -26 388 -28T339 -30H324Q318 -30 312 -30Q304 -28 300 -28Q229 -28 166
20T73 138T43 284Q43 336 56 383T98 468Q146 538 218 575T379 621Q423 629 460 633T536 638Q582 638 614 632T681 607Q732 585 750 572T805 495T842 347Q842 243 803 182T720 84T624 22Q620 21 618 20T618 15Q695 -45 718 -61T781 -94Q801 -104 822 -108T868 -112Q889
-112 912 -109T961 -99ZM659 451Q628 506 579 535T470 571Q462 573 452 574T432 575Q392 575 356 556T275 500Q237 459 216 408T194 303Q194 263 212 211T293 111T429 48Q499 56 558 92T654 189T690 328Q690 398 659 451Z" />
<glyph unicode="R" glyph-name="R" horiz-adv-x="710" d="M695 13Q677 6 651 3T575 -1H525Q465 7 428 81T371 176Q349 217 315 245T238 273Q229 273 223 272T212 266T208 249Q208 228 207 224Q207 169 211 113T224 1Q221 -2 220 -3H51L46 1Q59 54 64 115T70 245Q70
284 68 375T66 473Q66 525 60 560T32 626V633Q76 633 121 632T212 630Q273 630 307 632T389 644Q422 644 467 634T520 618T535 603T549 590Q563 572 570 548T578 495Q578 458 565 431Q551 396 519 365T445 307Q446 300 463 284T538 178T612 71Q622 63 641 51T695
19V13ZM409 530Q397 553 371 567T315 581Q285 581 258 563T218 510T206 433Q206 417 208 378T210 336L212 328Q232 325 249 325Q292 325 329 341T393 392Q420 434 420 481Q420 506 409 530Z" />
<glyph unicode="S" glyph-name="S" horiz-adv-x="660" d="M613 485L608 481Q580 485 567 485T546 486Q492 486 439 470Q437 472 437 476T436 483Q436 493 436 503T437 523Q437 541 433 552T416 570T390 581T364 584Q336 584 306 573T250 545Q229 527 217 506T205
460Q205 450 206 445Q206 434 214 424T235 405Q257 394 282 390T334 386Q365 386 428 392T501 398Q536 392 564 370T608 315Q622 273 622 233Q622 119 560 67T451 1T349 -13Q314 -13 271 -8Q255 -8 217 -10T174 -12Q127 -12 95 0T48 45T33 108Q33 154 58 188Q116
194 155 198T226 210Q224 196 215 174T204 142T201 122Q201 89 228 67T295 45Q301 45 332 51T404 98T450 171T456 218Q456 238 449 254T427 278T404 286T380 287Q362 287 353 289Q338 289 306 288T256 287Q184 287 137 302T58 368Q43 397 43 435Q43 472 57 508T102
581T179 633T282 649Q300 649 321 647T354 644T375 642T389 641Q411 641 433 642T477 644Q515 644 542 636T588 603Q602 582 609 560T617 514Q617 507 616 499T613 485Z" />
<glyph unicode="T" glyph-name="T" horiz-adv-x="677" d="M643 631Q641 602 640 583T633 544L628 540Q603 540 579 540T529 541Q505 541 480 540T442 537T428 533T418 461T410 248Q410 118 425 -4H254L252 1Q252 52 255 159T259 307Q259 376 256 425T242 532Q238
538 234 540Q169 540 119 536T22 517Q19 524 22 532Q38 586 55 640Q108 640 219 637T386 634Q492 634 585 644Q593 642 604 643T627 647Q645 647 643 631Z" />
<glyph unicode="U" glyph-name="U" horiz-adv-x="740" d="M700 4L536 -6Q533 -1 533 12V27Q533 41 528 49Q514 49 484 40T446 30T350 5T210 -20Q143 -20 101 23Q89 37 82 58T71 104Q71 199 70 266T67 428T65 559Q60 570 53 592T41 629L45 631Q91 631 137 632T228
634L231 629Q221 579 217 514T212 380Q212 348 213 283T214 186Q220 144 236 113T288 71Q308 67 333 67Q416 67 461 120T522 238T537 390Q537 421 535 491T533 563Q533 576 529 601T524 630Q565 630 607 631T692 633L695 622Q683 572 678 512T673 393Q673 340 678
218T684 60Q692 32 700 4Z" />
<glyph unicode="V" glyph-name="V" horiz-adv-x="668" d="M659 631Q632 576 608 525T547 395T481 254T431 111Q422 90 418 76T414 45Q414 28 420 16T442 -10H235Q235 1 234 12T230 40T226 67T220 91L73 520Q68 538 62 549T43 580Q33 598 25 607T3 631H194L333
192L472 550Q479 572 482 593L487 631H659Z" />
<glyph unicode="W" glyph-name="W" horiz-adv-x="1194" d="M1194 628Q1183 612 1151 558T1096 451T1044 325T996 206T951 83Q947 75 947 64Q947 51 956 29T967 4Q922 4 851 2T760 -1Q754 9 745 40T718 119T661 266T580 448Q578 455 572 451T565 444Q515 337 499
301T462 218T423 127T402 56T395 4L390 -1H229Q225 10 221 35T211 90Q184 186 148 291T87 464T44 565Q19 608 7 628Q23 630 42 631T102 632H125Q164 632 197 636Q203 634 204 623T209 607Q250 422 327 211Q332 202 338 211Q353 243 417 390T490 555T501 599T507
634H679Q687 630 688 615T700 564T736 457T787 324T852 175Q858 175 860 179T866 188L1035 631Q1039 634 1048 634Q1068 634 1091 634T1139 635Q1180 635 1186 634Q1190 631 1194 628Z" />
<glyph unicode="X" glyph-name="X" horiz-adv-x="680" d="M671 628Q671 624 668 621T601 542T419 310Q422 301 422 297Q462 229 514 153T626 -3H478Q475 -2 467 -2Q448 -4 439 -4Q428 -4 421 -1T413 18Q384 79 355 141Q347 147 340 163T324 184L315 180Q269 119
236 76T167 -4L-5 -3Q-8 -1 -5 4Q70 77 102 109T179 192T264 294Q230 352 197 400T121 507T26 628Q30 629 34 630Q82 630 131 631T229 633Q249 603 290 528T353 418Q359 418 382 450T438 531T500 630Q515 632 533 632T561 632Q581 632 601 632T641 631Q651 633
659 633Q671 633 671 628Z" />
<glyph unicode="Y" glyph-name="Y" horiz-adv-x="623" d="M617 632Q617 630 618 628Q614 619 593 589T533 490T469 371T395 213Q387 199 384 182T381 144Q381 129 383 102T385 63Q389 53 390 29T392 3Q354 0 316 0H305Q288 0 271 0T236 1H227L223 5Q223 25 225
64T227 123Q227 153 225 171T214 215Q175 313 125 411T14 606Q14 611 6 618T2 632Q71 632 99 632T168 632Q239 480 310 328Q318 323 319 323Q326 333 370 413T478 632H617Z" />
<glyph unicode="Z" glyph-name="Z" horiz-adv-x="687" d="M668 633Q645 601 548 473T401 270T306 107Q303 95 317 95Q372 95 497 105T665 115Q667 108 665 107Q636 51 608 -4L598 -8Q502 -8 406 -8T214 -7T23 -6Q20 -6 18 -4Q103 105 168 191T285 354T395 528Q395
540 390 542Q343 542 227 531T60 520Q57 525 60 528L130 631Q172 631 255 628T381 625Q424 625 527 632T668 640Q670 638 668 633Z" />
<glyph unicode="[" glyph-name="bracketleft" horiz-adv-x="344" d="M320 716Q314 701 305 667T294 627Q289 625 284 623Q267 623 258 623T246 625Q245 626 239 626T208 627Q199 620 197 615Q195 602 194 520T193 327Q193 226 193 124T195 -81Q195 -101 209 -101Q224
-103 235 -104T252 -107Q258 -104 269 -99T296 -89Q304 -89 304 -100V-111Q306 -124 306 -135T306 -158V-175Q306 -184 306 -191T304 -205Q268 -205 264 -202T220 -199L58 -201Q56 -198 55 -197Q63 -146 66 -65T71 112T73 333V370V402V429V452V471V487V501V512Q73
535 73 553T72 583Q72 621 65 661T53 730L57 734Q99 734 134 731T207 724Q231 724 247 726T288 733T320 740Q324 740 324 735T320 716Z" />
<glyph unicode="\" glyph-name="backslash" horiz-adv-x="520" d="M485 -4Q460 -4 421 -1T299 167T29 643Q30 644 32 645T39 646Q65 646 117 638T173 626Q176 616 258 458T394 191T485 -4Z" />
<glyph unicode="]" glyph-name="bracketright" horiz-adv-x="344" d="M289 730Q283 693 277 653T270 583L269 305Q269 177 270 88T275 -72T287 -197Q286 -198 285 -199T284 -201L122 -199Q82 -199 78 -202T38 -205Q37 -193 37 -179T36 -158Q36 -151 37 -136T38
-111V-100Q38 -89 46 -89Q67 -96 78 -101T91 -107L133 -101Q147 -101 147 -81Q147 -26 148 155T149 386V428V463V492V515V534V549V561Q149 604 146 612T134 627Q117 627 108 627T96 625Q93 624 83 624T58 623Q52 627 48 627Q41 656 36 676T24 712T18 735Q18 740
24 739T35 737Q53 733 84 729T135 724Q146 724 199 729T285 734L289 730Z" />
<glyph unicode="^" glyph-name="asciicircum" horiz-adv-x="472" d="M449 352Q432 350 405 338T366 314L360 312Q309 404 243 477Q241 480 220 455T169 390T111 302Q108 301 106 300Q93 313 85 318T64 328T40 338T22 346Q78 411 119 465T239 623H248Q266 598 295
559T368 460T449 356Q450 353 449 352Z" />
<glyph unicode="_" glyph-name="underscore" horiz-adv-x="274" d="M274 -199H-7V-143H274V-199Z" />
<glyph unicode="`" glyph-name="grave" horiz-adv-x="275" d="M299 718Q267 703 235 689Q206 711 159 733T56 777Q55 781 55 789Q55 800 63 808T88 825T133 844Q195 810 240 777T299 724Q301 720 299 718Z" />
<glyph unicode="a" glyph-name="a" horiz-adv-x="635" d="M609 425Q588 354 578 288T567 160Q567 92 580 3Q578 -4 575 -4L430 -1Q429 0 425 8T415 17Q388 7 358 5T283 2Q245 -8 210 -8Q166 -8 130 7T72 53T40 119T30 191Q30 244 52 291Q76 352 135 390T263 435Q271
434 278 434T293 434Q311 434 349 437T406 440Q428 440 448 437T483 427T517 420Q534 420 557 426T602 439Q611 439 611 435L609 425ZM446 293Q441 320 399 347T316 374Q282 361 252 336T201 273T181 188Q181 143 204 111Q216 90 234 77T274 64Q284 64 307 72T368
115T420 183T441 236T448 274Q448 287 446 293Z" />
<glyph unicode="b" glyph-name="b" horiz-adv-x="599" d="M569 254Q569 251 567 243T567 232Q567 173 531 120T433 30T274 -8Q220 -8 187 -4T125 16Q108 16 79 5T34 -6Q34 15 43 78T53 169Q56 192 57 256T62 345Q60 347 60 359V402Q60 484 53 531T19 623Q44 632
79 634T148 640Q170 637 188 636T218 635L220 631Q211 591 206 513T199 418Q204 409 208 408Q212 409 285 417T385 436Q393 438 401 438T414 438Q479 438 526 393Q550 365 559 331T569 254ZM413 292Q400 333 384 345T341 358Q333 358 325 358T309 357Q244 329 212
267T179 130Q196 106 222 87T268 62T296 55Q307 55 319 59T351 78Q423 144 423 233Q423 263 413 292Z" />
<glyph unicode="c" glyph-name="c" horiz-adv-x="586" d="M582 426Q559 397 533 370T483 328Q480 329 417 351T330 373Q308 373 289 365Q235 330 203 285T170 180Q176 142 191 112T236 67Q274 46 318 46Q372 46 441 81T574 148L510 7Q478 1 432 -3T302 -7H236Q225
-7 214 -7T191 -8Q175 -8 161 -6T137 3Q87 28 59 76T30 180Q30 238 56 284T132 372Q195 402 288 419T554 436Q557 432 571 436T588 441Q591 441 590 438T582 426Z" />
<glyph unicode="d" glyph-name="d" horiz-adv-x="635" d="M599 283Q607 251 607 224Q607 178 589 136T533 57T441 6T304 -8H275Q209 -8 167 1T94 42T48 116T32 205Q32 260 52 306T113 383T202 419Q224 426 251 426Q270 426 290 423T322 419Q330 424 322 436Q274
478 194 532T72 616V620Q146 620 200 620T312 617L340 594Q367 566 394 538Q474 464 529 402T599 283ZM440 162Q455 194 455 233Q455 257 450 276T428 312T380 341T316 353Q290 353 267 346T223 318T194 271T185 217Q185 187 194 160T221 113T257 85T317 64Q357
64 386 91T440 162Z" />
<glyph unicode="e" glyph-name="e" horiz-adv-x="600" d="M566 139L492 -6Q488 -8 484 -11Q453 -11 388 -6T302 -1Q290 -1 281 -1T238 -6Q166 -6 131 8T74 48T41 107T30 179Q30 236 55 291T141 388T271 429Q301 432 334 435T383 438Q419 438 445 433T490 415T522
395Q535 384 550 355T566 286Q566 241 546 206Q539 204 537 202Q500 207 470 208T389 209Q315 209 271 208T189 206Q183 200 183 186Q183 178 184 168T185 157Q185 133 199 111T246 71T327 53Q361 53 388 66Q422 77 459 93T566 148Q567 146 566 139ZM415 287Q418
295 417 303T412 319T384 349T341 374T311 378Q283 378 260 362T212 318Q206 309 203 303T199 291Q199 287 203 283Q218 280 234 279T273 278Q304 278 352 280T406 283Q413 285 415 287Z" />
<glyph unicode="f" glyph-name="f" horiz-adv-x="525" d="M503 456Q503 434 487 414T460 380Q455 376 451 375T446 380Q421 396 394 413T346 436Q310 432 298 407T274 347Q264 296 261 244T257 122Q257 110 258 105T269 98H481Q485 97 484 93T481 82Q464 50 455
33T435 13Q404 13 345 14T257 15Q255 13 253 11T248 4Q244 -36 243 -74T242 -164V-188Q232 -189 228 -191Q197 -195 163 -200T103 -205Q100 -205 99 -204T100 -176T109 -88T116 13L111 19Q95 19 65 17T22 15Q22 35 27 56T40 96Q40 99 48 101Q57 101 66 101T84 100Q106
100 115 103T125 116Q125 167 128 278T131 443Q131 461 144 480T174 504T207 509Q227 509 261 500T305 490Q344 521 396 521Q427 521 448 510T487 490Q506 477 503 456Z" />
<glyph unicode="g" glyph-name="g" horiz-adv-x="596" d="M582 437Q559 351 553 246T547 3Q547 -43 524 -83T454 -154T324 -194T165 -211Q112 -211 75 -198T21 -156T4 -106Q4 -87 10 -69T28 -33T50 -7T123 45Q120 54 102 73T82 97Q48 143 48 211Q48 261 70 310T148
392T271 432Q290 439 321 442T381 445Q404 445 431 444T488 441Q507 441 530 446T582 459Q582 448 582 437ZM414 314Q410 327 405 332T354 357T277 376Q249 365 229 340T202 282Q195 257 195 225Q195 196 202 171T227 127Q245 112 268 106T321 99Q340 99 352 100T388
107L391 105Q389 89 386 74T370 43Q281 33 231 15T158 -61Q156 -71 156 -77Q156 -111 179 -129T232 -147Q247 -147 264 -143T302 -132Q341 -115 369 -81T404 -6Q410 43 412 93T415 209V222V234Q415 251 415 268T414 304V314Z" />
<glyph unicode="h" glyph-name="h" horiz-adv-x="655" d="M636 82Q636 67 624 46T604 10T568 -9Q542 -10 516 -11Q479 -7 446 -6T367 -5Q340 -5 314 -5T261 -6Q365 74 416 127T468 254Q468 270 463 294T429 338T368 359Q337 347 308 323T248 255T205 145T191 -4L187
-8Q158 -8 121 -8T36 -6Q36 25 46 75T59 168T66 262T69 382Q69 467 62 538Q62 559 53 575T20 623Q19 626 21 627T28 629Q61 629 136 634T238 639V623Q226 592 220 551T213 435V390Q215 387 217 386T220 385Q244 396 310 407T401 429Q430 438 462 438Q525 438 562
409T615 343T631 266Q631 240 625 214Q619 179 600 148T548 82Q548 78 550 76T553 73Q594 77 636 82Z" />
<glyph unicode="i" glyph-name="i" horiz-adv-x="275" d="M301 567Q257 549 220 530T146 481Q124 486 102 493T58 508Q56 510 58 514Q107 582 176 620Q212 617 251 610T296 596T302 578Q302 570 301 567ZM222 443Q222 422 218 384T213 339Q213 280 215 145T217
4L218 -1L57 1Q57 23 62 48T72 98Q74 119 75 163T76 232V313Q71 345 47 374T7 423Q9 426 14 426T20 427Q47 427 118 440T200 454Q222 454 222 443Z" />
<glyph unicode="j" glyph-name="j" horiz-adv-x="330" d="M203 487Q177 487 146 498Q109 514 91 521V526Q126 560 162 586T239 629Q263 622 290 609T343 582Q273 534 203 487ZM294 454Q275 396 268 335T261 195Q261 158 263 72T265 -21Q259 -81 208 -128T91 -201Q65
-207 38 -207Q14 -207 -7 -202T-47 -183Q-38 -170 -30 -162T8 -127Q15 -127 27 -136T47 -141Q96 -75 112 8T129 203Q129 227 128 276T127 350Q121 360 119 364Q106 364 82 361T46 358Q40 358 26 360Q35 410 36 417T47 449Q47 453 51 452T57 454Q113 454 180 456T292
460L294 454Z" />
<glyph unicode="k" glyph-name="k" horiz-adv-x="555" d="M312 225V219Q404 123 447 82T547 1Q504 -8 481 -12T432 -16Q405 -16 388 -12T351 5Q276 75 202 146Q200 146 190 136Q190 113 196 66T202 -4Q200 -7 198 -8T195 -9Q168 -6 119 -4T40 -2Q52 122 56 252T61
540Q61 560 57 578T42 625Q54 631 73 631Q88 630 95 630Q99 630 107 632Q140 632 170 637T223 647Q225 643 223 627Q223 562 208 445T193 268Q194 264 198 264T208 265Q293 327 331 360T404 431Q432 431 489 434T574 437Q529 403 483 369T392 297T312 225Z" />
<glyph unicode="l" glyph-name="l" horiz-adv-x="360" d="M334 92Q330 70 322 48T307 6Q289 -3 269 -5T234 -8Q190 -8 149 5Q94 -9 40 -24Q39 -23 38 -22T35 -19Q51 73 59 200T68 562Q63 598 58 635Q59 637 62 637T67 640H107H122Q175 640 222 646Q233 650 235
643T237 626Q220 488 210 371T200 137Q203 114 205 100T222 82Q248 82 273 84T334 92Z" />
<glyph unicode="m" glyph-name="m" horiz-adv-x="979" d="M962 73Q948 51 935 30T905 -12Q876 -6 846 -4T778 -2Q738 -2 672 -4T593 -7Q651 32 688 62T753 137T782 232Q782 247 781 254Q781 281 766 303T724 342Q709 348 699 350T676 353Q667 353 628 336T554
244T520 75Q520 61 523 33T527 -6L369 -4Q371 7 390 87T409 220Q409 242 406 265Q400 295 389 314T362 341T333 348Q318 348 305 342T281 328Q238 289 220 231T201 103Q201 81 203 54T208 -1Q178 -1 106 1T32 3Q34 13 38 24T48 48Q67 112 75 172T84 304Q84 333
67 361T22 412Q119 423 216 434Q226 432 228 419T232 395Q238 391 239 391L324 405Q351 417 380 425T437 433Q479 433 510 412Q515 410 526 393T553 382Q650 406 748 431Q803 431 840 420T898 380T927 325T935 266Q935 221 918 184Q908 158 891 131T853 79Q853
70 859 68Q881 68 919 75T962 84Q964 82 962 73Z" />
<glyph unicode="n" glyph-name="n" horiz-adv-x="664" d="M639 94Q630 75 616 50T588 1L582 -5Q547 -2 501 -1T398 1H288Q332 41 364 71T420 135Q438 166 450 199T463 262Q463 280 458 297T440 329T410 352T366 364Q310 355 266 308T208 223T192 162T189 118Q189
93 191 52T194 4L193 1H37L34 3Q50 74 60 130T71 237Q71 291 60 332T21 410V416Q65 416 106 420T185 434Q197 438 200 429Q202 415 203 410T205 401T214 393Q257 406 293 412T372 419Q394 424 420 428T470 432Q497 432 518 427T564 404T602 352T616 276Q616 268
616 260Q614 248 611 224T588 159T535 81Q535 69 541 69Q574 77 594 81T639 94Z" />
<glyph unicode="o" glyph-name="o" horiz-adv-x="620" d="M560 347Q586 300 586 237Q586 165 548 113T457 41T334 5T255 -12T230 -13Q179 -13 137 7T69 69Q34 119 34 186Q34 253 69 304T159 381T291 418Q344 438 400 438Q433 438 460 431T510 405Q523 399 529
397T560 347ZM433 288Q415 329 381 347T303 366Q269 356 244 342T195 294T171 204Q171 168 187 135T238 80T314 57Q338 54 354 65T400 104Q446 153 446 225Q446 261 433 288Z" />
<glyph unicode="p" glyph-name="p" horiz-adv-x="590" d="M536 364Q563 320 563 263Q563 178 521 123T435 45T332 12Q299 -1 267 -10T205 -19L199 -25Q199 -57 203 -117T207 -205L205 -210Q185 -210 166 -210T127 -209Q108 -209 96 -209T49 -213Q47 -212 46 -207Q53
-131 57 -59T61 89Q61 179 55 262T34 421L191 433Q195 430 197 417T209 402Q224 408 267 412T328 430Q363 442 397 442Q440 442 475 424T536 364ZM391 302Q371 335 368 334T361 337Q338 349 327 353T301 358Q290 358 279 352Q226 316 210 258T194 116Q211 92 241
80T307 64Q327 67 343 82T385 133T410 228Q410 271 391 302Z" />
<glyph unicode="q" glyph-name="q" horiz-adv-x="565" d="M572 425Q548 358 539 280T530 112Q530 81 531 16T532 -82Q537 -125 541 -150T553 -207V-212Q513 -212 451 -214T380 -217Q380 -184 387 -118T394 -17Q392 -7 386 -4Q370 -6 360 -6Q344 -6 317 -4T284
-1Q256 -8 221 -8Q183 -8 149 3T90 39Q59 67 45 104T30 186Q30 230 46 275Q71 336 129 369T261 414Q303 430 353 430Q416 430 475 406Q490 406 508 413T544 428Q545 428 555 431T569 435Q572 435 573 433T572 425ZM413 306Q409 333 368 346T279 360Q237 340 213
299T188 211Q188 162 211 121T277 63Q308 63 339 81T392 112Q404 124 406 148T411 180Q411 198 413 231T416 272Q416 289 413 306Z" />
<glyph unicode="r" glyph-name="r" horiz-adv-x="681" d="M445 10Q369 51 328 68T248 94Q237 88 237 70Q237 65 238 55T239 41Q239 38 241 29T243 14Q243 5 234 2H112Q109 3 108 4Q108 66 110 163T113 277Q113 313 88 343T21 401L25 403Q68 403 119 410T219 424Q224
420 228 405T239 386Q270 399 356 414T453 431T470 434T481 434Q513 434 539 425T591 386T617 304Q617 287 612 262T571 200T488 136V130Q527 99 572 70T659 19Q627 9 593 3T523 -3Q480 -3 445 10ZM454 319Q448 346 439 352T379 364Q327 344 290 295T247 214T242
176T241 163Q241 150 248 145Q285 145 318 155T383 184T436 234T457 298Q457 308 454 319Z" />
<glyph unicode="s" glyph-name="s" horiz-adv-x="538" d="M508 169Q508 120 477 78T400 20Q382 10 359 6T310 1Q296 1 282 1T254 2Q225 2 198 -5Q144 -5 105 7T42 55Q27 82 27 117Q27 130 30 144Q35 149 36 149L170 146Q176 142 176 136Q174 124 172 113Q172 91
185 74Q209 53 246 53Q252 53 260 54T285 57T329 83T364 138Q364 163 353 169Q341 180 324 184T286 189Q274 189 262 189T239 188Q210 185 201 185T170 184Q129 184 98 195T48 237Q33 258 33 290Q33 315 52 352T131 407T287 424Q322 434 358 434Q402 434 439 419T485
386T498 354T503 333Q503 322 498 316Q467 316 420 314T364 311Q358 329 351 340T329 360Q306 370 277 370Q241 370 216 351Q206 342 196 332T185 308Q185 297 191 288T209 273T237 266T274 264Q295 264 338 268T401 272Q454 272 481 251T508 169Z" />
<glyph unicode="t" glyph-name="t" horiz-adv-x="490" d="M474 410Q455 369 436 328L431 324Q401 324 335 326T263 328Q253 329 249 320T240 301Q229 257 229 213Q229 168 240 130T273 70T316 48Q323 48 337 52T368 64T465 118Q458 90 444 47Q433 18 429 4L421
-2H190Q168 2 150 15T109 70T85 199Q85 260 102 316Q97 328 78 328Q61 327 44 327L40 330Q42 357 43 375T51 408Q62 410 74 410T93 410H109Q115 410 123 411T135 412Q161 454 178 480T217 535Q225 541 228 541Q276 547 337 551T453 558Q381 489 310 420Q313 415
321 415Q348 415 409 417T474 419Q479 415 474 410Z" />
<glyph unicode="u" glyph-name="u" horiz-adv-x="616" d="M602 425Q601 411 583 282T564 110Q564 71 568 44T576 4H424Q422 7 421 17T416 32Q394 27 339 21T266 11Q226 -4 183 -4Q156 -4 136 1T71 42T27 171Q27 178 27 186Q29 197 32 218T50 271T92 337Q93 340
91 342T84 347Q76 348 64 347T40 346Q31 346 27 347Q31 366 35 380T52 419H75H95H113H128H142H154Q172 419 190 419T228 420H238Q260 420 294 421T329 423Q354 423 378 420Q314 373 250 326Q179 262 179 192Q179 181 182 160T202 113T238 77T267 67T279 66Q305
66 329 81T381 122Q416 160 428 212T440 335V346Q440 363 440 380T439 415V425L444 427H597L602 425Z" />
<glyph unicode="v" glyph-name="v" horiz-adv-x="636" d="M606 383Q627 344 627 295Q627 245 608 198T553 107Q445 -5 290 -5Q271 -9 247 -12T201 -15Q157 -15 124 -3T63 48T36 155Q36 230 71 290Q89 317 107 344Q105 350 103 351T96 352T73 350T47 348Q39 348
31 348Q23 351 20 352Q26 367 36 383T60 422Q112 422 198 425T309 429Q249 374 216 311T182 175Q182 156 186 133T209 87T250 56T286 48Q319 48 351 75T406 120Q439 156 456 194T474 273Q474 295 468 318Q456 350 406 362T347 378Q423 412 449 421T517 436Q535
437 542 437Q561 437 575 427T606 383Z" />
<glyph unicode="w" glyph-name="w" horiz-adv-x="954" d="M919 187Q887 112 816 64T661 16Q633 7 605 1T552 -6Q509 -6 479 13Q471 20 459 36T442 58Q402 37 384 28T340 13Q313 13 248 2T159 -10Q138 -10 120 -7T84 5Q51 26 36 62T21 143Q21 166 24 187Q43 264
109 328Q109 332 107 334T103 337H35Q38 354 44 370T60 402T72 417T79 418H115Q202 418 247 419T356 427Q296 370 237 313Q172 242 172 173Q172 158 175 143Q178 112 195 87T242 54Q297 54 339 101T397 193T418 272T424 341Q424 370 422 386T420 411Q436 410 448
410T468 409Q489 409 539 411T592 413Q586 388 572 350T553 287T547 224Q547 180 559 146T600 85Q621 74 631 70T658 67Q711 87 748 139T795 250Q795 275 790 296T771 335Q752 352 734 359T637 385Q688 412 737 427T840 443Q844 442 848 442T853 442Q857 442 865
435T898 403Q917 382 926 352T936 289Q936 238 919 187Z" />
<glyph unicode="x" glyph-name="x" horiz-adv-x="677" d="M662 426Q660 423 650 413T635 396Q512 293 412 194Q438 126 450 102T483 66T511 53T531 51Q548 51 566 54T590 58Q586 42 581 25T565 -1Q547 -1 511 -2T458 -3Q416 -3 400 -2T354 5Q330 15 315 49T292
92Q289 93 286 91T269 80T227 47T173 -1H8Q134 87 261 175Q261 188 248 215T213 293Q196 326 178 348Q168 356 156 359T129 362Q119 362 110 362T90 361Q90 374 97 390T111 421Q129 426 158 427T192 428H219Q229 428 249 432T279 436Q294 436 303 432T322 411T352
342T374 287Q379 285 387 290Q440 336 465 359T513 416Q519 418 524 420Q547 420 593 423T662 426Z" />
<glyph unicode="y" glyph-name="y" horiz-adv-x="632" d="M625 420Q582 338 536 249T456 81T397 -85Q375 -142 322 -166T194 -199Q169 -205 144 -209T95 -214Q69 -214 47 -208T7 -186Q-7 -169 -14 -145T-21 -96Q-21 -65 -12 -31T11 27T36 67T61 98Q113 103 166
109Q162 97 144 75T118 36T102 -6T95 -58Q95 -97 114 -125Q135 -152 164 -152Q169 -152 181 -150Q225 -137 251 -98T293 -5Q296 1 287 6Q269 6 236 2T198 -3Q198 46 199 75T201 131Q201 191 194 233T165 315Q157 321 142 321Q121 320 101 319Q88 319 62 316T23
313Q37 335 69 372T107 416Q132 416 183 417T259 418L268 416Q308 360 324 289T341 132Q345 126 349 130T371 171T425 282T497 411Q500 420 522 424H620Q622 424 625 420Z" />
<glyph unicode="z" glyph-name="z" horiz-adv-x="585" d="M568 421Q469 347 406 271T279 85Q287 77 288 77Q301 75 313 75T339 75Q389 75 431 80T548 98Q542 75 526 47T494 -9L488 -13Q435 -13 311 -4T140 5Q103 5 70 3T4 -5L5 2Q39 38 109 108T222 226T299 328Q301
333 290 338Q241 338 179 330T60 313V319Q79 351 91 371T118 411Q159 417 199 419T291 422Q314 422 362 421T437 420Q449 424 462 425T496 426Q527 426 543 425T568 421Z" />
<glyph unicode="{" glyph-name="braceleft" horiz-adv-x="317" d="M308 -152Q289 -168 266 -182T207 -214Q127 -180 94 -133T61 -7Q61 15 77 74T94 148Q94 187 64 220T7 268Q51 292 77 324T103 386Q103 410 82 464T61 543Q61 624 96 676T207 750Q246 730 266 718T308
688Q295 683 272 671T223 645T189 609T181 526Q181 511 193 450T205 367Q205 339 181 314T130 272Q154 259 173 229T193 162Q193 150 189 81T185 -3V-17Q185 -49 193 -73T235 -115T308 -152Z" />
<glyph unicode="|" glyph-name="bar" horiz-adv-x="245" d="M180 -174H72V750H180V-174Z" />
<glyph unicode="}" glyph-name="braceright" horiz-adv-x="317" d="M316 268Q289 254 259 221T229 148Q229 132 245 71T262 -7Q262 -87 230 -133T116 -214Q77 -194 57 -182T15 -152Q23 -149 51 -134T100 -108T129 -72T138 -16V-3Q138 19 136 63T130 162Q130 199
149 228T193 272Q166 288 142 313T118 367Q118 389 130 450T142 526Q142 586 134 609T98 646T49 672T15 688Q34 704 57 718T116 750Q191 730 226 677T262 543Q262 520 241 463T220 386Q220 346 251 316T316 268Z" />
<glyph unicode="~" glyph-name="asciitilde" horiz-adv-x="493" d="M466 576Q464 576 419 545T342 513Q295 513 233 542T148 571Q128 571 116 550Q107 531 98 513Q81 522 66 528T34 539V550Q69 598 91 620T150 643Q176 643 252 616T342 588Q365 588 385 601Q407
618 430 635Q434 634 438 634Q441 623 452 604T466 576Z" />
</font>
</defs>
</svg>
